<?xml version="1.0" encoding="iso-8859-1"?>
<!-- Uploaded to: SVG Repo, www.svgrepo.com, Generator: SVG Repo Mixer Tools -->
<!DOCTYPE svg PUBLIC "-//W3C//DTD SVG 1.1//EN" "http://www.w3.org/Graphics/SVG/1.1/DTD/svg11.dtd">
<svg fill="#ffffff" height="800px" width="800px" version="1.1" id="Capa_1" xmlns="http://www.w3.org/2000/svg" xmlns:xlink="http://www.w3.org/1999/xlink" 
	 viewBox="0 0 424.522 424.522" xml:space="preserve">
<path d="M352.264,279.079v10.974c0,4.971-4.029,9-9,9s-9-4.029-9-9v-10.974c0-4.97,4.029-9,9-9S352.264,274.108,352.264,279.079z
	 M164.803,355.413c-4.971,0-9,4.03-9,9c0,23.132-32.94,35.798-60.573,42.35c-4.837,1.147-7.828,5.997-6.681,10.833
	c0.981,4.139,4.674,6.926,8.749,6.926c0.688,0,1.387-0.079,2.084-0.245c49.382-11.709,74.421-31.85,74.421-59.864
	C173.803,359.443,169.774,355.413,164.803,355.413z M90.256,279.079c0-4.97-4.029-9-9-9s-9,4.03-9,9v10.974c0,4.971,4.029,9,9,9
	s9-4.029,9-9V279.079z M328.075,406.763c-27.632-6.552-60.57-19.219-60.57-42.35c0-4.97-4.029-9-9-9s-9,4.03-9,9
	c0,28.014,25.038,48.155,74.418,59.864c0.698,0.166,1.396,0.245,2.084,0.245c4.075,0,7.769-2.787,8.749-6.925
	C335.903,412.76,332.911,407.91,328.075,406.763z M283.883,192.911c-8.752-2.619-18.324-2.315-26.951,0.855
	c-4.666,1.714-7.059,6.886-5.345,11.552c1.339,3.642,4.783,5.899,8.449,5.899c1.03,0,2.079-0.178,3.103-0.555
	c4.999-1.837,10.533-2.018,15.584-0.506c4.758,1.425,9.777-1.281,11.202-6.042C291.35,199.352,288.645,194.336,283.883,192.911z
	 M395.813,188.506c-10.368,20.548-27.103,38.478-48.861,52.495c-1.339,3.56-2.802,7.107-4.365,10.581
	c-2.04,4.533-7.37,6.553-11.9,4.514c-0.011-0.005-0.021-0.009-0.031-0.014c-13.042,33.621-36.52,61.503-66.975,79.254
	c-19.857,11.575-35.711,16.748-51.404,16.774c-15.724-0.026-31.578-5.199-51.434-16.774c-30.339-17.683-53.953-45.875-66.961-79.259
	c-0.014,0.006-0.027,0.012-0.041,0.018c-4.528,2.041-9.861,0.023-11.902-4.51c-1.559-3.459-3.022-7.007-4.367-10.583
	c-21.759-14.016-38.493-31.947-48.861-52.495c-11.974-23.73-15.088-49.797-9.006-75.382c7.34-30.878,27.958-58.838,58.056-78.73
	C110.776,12.572,154.468,0.69,204.112,0.03c2.687-0.035,5.429-0.039,8.149-0.013c2.722-0.027,5.463-0.022,8.147,0.013
	c49.646,0.659,93.338,12.542,126.354,34.363c30.098,19.892,50.716,47.853,58.056,78.73
	C410.901,138.709,407.786,164.775,395.813,188.506z M134.641,128.174c19.391-14.79,43.466-23.301,68.62-24.402V18.045
	C97.725,19.802,47.854,72.534,37.215,117.286c-9.894,41.624,9.138,82.167,50.012,108.526c0.479-6.488,1.254-13.046,2.322-19.619
	C94.841,173.616,110.433,146.637,134.641,128.174z M313.668,250.094h-63.211c-15.686,0-29.61-7.693-38.197-19.503
	c-8.587,11.81-22.512,19.503-38.197,19.503h-45.147c-4.971,0-9-4.03-9-9c0-4.971,4.029-9,9-9h45.147
	c16.036,0,29.095-12.995,29.197-29.007c0-0.063,0-0.128,0-0.191v-16.789c0-0.046,0-0.093,0-0.139
	c-0.074-7.53-6.224-13.633-13.771-13.633H119.71c-5.812,10.491-10.114,22.711-12.394,36.745c-1.22,7.499-2.024,14.966-2.405,22.302
	c9.212,37.493,32.846,69.664,64.995,88.402c16.96,9.887,30.027,14.305,42.369,14.325c12.312-0.02,25.379-4.438,42.34-14.325
	C281.372,304.188,302.058,279.684,313.668,250.094z M319.647,232.094c-0.365-7.559-1.183-15.266-2.442-23.012
	c-10.095-62.148-59.843-88.671-104.686-87.387c-0.018,0-0.034,0-0.052,0.001c-0.012,0-0.023,0-0.032,0.001
	c-0.01,0-0.018,0.001-0.029,0c-0.008,0-0.016,0-0.023,0c-0.01,0-0.02,0-0.031,0c-0.011,0-0.02,0-0.03,0c-0.012,0-0.02,0-0.029,0
	c-0.006,0-0.019,0-0.029,0h-0.001h-0.001c-0.011,0-0.018,0-0.029,0c-0.009,0-0.016,0-0.029,0c-0.01,0-0.018,0-0.028,0
	c-0.009,0-0.018,0-0.026,0c-0.01,0-0.018,0-0.029,0c-0.011,0-0.02,0-0.029,0c-0.011,0-0.021-0.001-0.033,0
	c-0.012-0.002-0.034-0.001-0.052-0.001c-28.219-0.809-58.449,9.421-79.455,32.64h56.94c8.921,0,16.995,3.696,22.771,9.637
	c5.776-5.941,13.851-9.637,22.771-9.637h36.173c4.971,0,9,4.03,9,9s-4.029,9-9,9h-36.173c-7.547,0-13.696,6.103-13.771,13.633
	c0,0.046,0,0.093,0,0.139v16.789c0,0.063,0,0.128,0,0.191c0.103,16.012,13.161,29.007,29.196,29.007H319.647z M387.307,117.286
	c-10.639-44.753-60.508-97.485-166.046-99.241v85.727c25.156,1.1,49.228,9.611,68.62,24.402
	c24.207,18.463,39.799,45.442,45.091,78.021c1.069,6.575,1.845,13.134,2.323,19.618
	C378.169,199.453,397.201,158.911,387.307,117.286z M209.234,270.714h6.052c4.971,0,9-4.029,9-9c0-4.97-4.029-9-9-9h-6.052
	c-4.971,0-9,4.03-9,9C200.234,266.685,204.263,270.714,209.234,270.714z M145.8,210.156c5.047-1.511,10.58-1.331,15.58,0.506
	c1.023,0.376,2.072,0.555,3.104,0.555c3.666,0,7.11-2.256,8.448-5.897c1.715-4.666-0.677-9.838-5.343-11.552
	c-8.627-3.171-18.199-3.475-26.951-0.855c-4.762,1.425-7.466,6.441-6.041,11.203C136.023,208.877,141.035,211.582,145.8,210.156z
	 M219.399,295.772c-4.062,2.367-6.027,2.643-7.125,2.645c-1.124-0.002-3.09-0.278-7.153-2.646
	c-4.298-2.503-9.806-1.048-12.308,3.246c-2.502,4.295-1.049,9.805,3.245,12.307c6.032,3.514,11.025,5.085,16.216,5.093
	c5.166-0.008,10.159-1.579,16.189-5.094c4.294-2.503,5.746-8.014,3.243-12.308C229.204,294.721,223.693,293.267,219.399,295.772z"/>
</svg>